<svg xmlns="http://www.w3.org/2000/svg" viewBox="0 0 64 64" fill="#00857c" id="Threads-Logo--Streamline-Phosphor" height="64" width="64">
  <desc>
    Threads Logo Streamline Icon: https://streamlinehq.com
  </desc>
  <path d="M50.817875 30.6883c-1.0468 -0.78795 -2.17135 -1.466925 -3.356125 -2.026325 -1.20615 -9.013 -7.236925 -11.853475 -9.980925 -12.685725 -5.964425 -1.809225 -12.8184 0.358825 -15.9363 5.0357 -1.030625 1.54595 -0.00125 3.62785 1.8529 3.747425 0.860525 0.0555 1.685275 -0.3523 2.1636 -1.069775 1.9208 -2.8827 6.63385 -4.269775 10.520675 -3.0968 3.0003 0.904625 5.071875 3.10585 6.076 6.3323 -1.519725 -0.289325 -3.0635 -0.4337 -4.610525 -0.4312 -4.197425 0 -8.126475 1.082525 -11.057425 3.04555 -3.4496 2.3309 -5.349275 5.777475 -5.349275 9.697475 0 6.20565 4.7824 10.71065 11.371 10.71065 3.91445 -0.026675 7.6512 -1.637775 10.35785 -4.4658 1.9419 -2.0203 4.221525 -5.53625 4.707025 -11.187075 0.114575 0.0784 0.223125 0.159825 0.331675 0.241225 3.04855 2.303775 4.59245 5.509125 4.59245 9.525625 0 5.837775 -6.1333 14.473825 -19.298475 14.473825 -8.060125 0 -13.713975 -2.6083 -17.290225 -7.972675C12.977825 46.1723 11.491225 39.9184 11.491225 32s1.4866 -14.1723 4.420575 -18.5627c3.576225 -5.364375 9.230075 -7.972675 17.2902 -7.972675 9.929675 0 16.283075 3.995375 19.458275 12.218325 0.647825 1.740325 2.936675 2.12675 4.11995 0.69555 0.56155 -0.679225 0.708 -1.6106 0.382025 -2.4294C53.308575 5.935025 45.0223 0.64 33.202 0.64c-9.649225 0 -16.82885 3.404375 -21.3067 10.119625C8.424575 15.9672 6.666625 23.11065 6.666625 32s1.75795 16.0328 5.228675 21.240375c4.47785 6.71525 11.657475 10.119625 21.3067 10.119625 9.067275 0 14.745225 -3.461675 17.911375 -6.362475 3.88985 -3.564175 6.2117 -8.4129 6.2117 -12.935975 0 -5.530225 -2.249475 -10.155825 -6.5072 -13.37325Zm-11.4253 11.458475c-1.79605 1.88405 -4.278225 2.9609 -6.8811 2.985225 -3.259625 0 -6.5464 -1.809225 -6.5464 -5.886025 0 -3.808425 3.618475 -7.903325 11.5821 -7.903325 1.793375 -0.00485 3.578625 0.24075 5.30405 0.729725 0 4.24565 -1.20615 7.7254 -3.458625 10.06535Z" stroke-width="0.25"></path>
</svg>